<svg viewBox="0 0 251.24 39.94" xmlns="http://www.w3.org/2000/svg"><g fill="#404041"><path d="m.07 38.63 11.2-24.55a.86.86 0 0 1 .62-.4h.37a.86.86 0 0 1 .62.4l11.12 24.55a.64.64 0 0 1 -.62.94h-2.3a.84.84 0 0 1 -.84-.54l-2.24-5.03h-11.94c-.73 1.68-1.5 3.32-2.23 5a.92.92 0 0 1 -.84.54h-2.3a.64.64 0 0 1 -.62-.94m16.52-7.7-4.49-10h-.18l-4.45 10z"/><path d="m33.79 14.74a.69.69 0 0 1 .69-.69h8.32a8.13 8.13 0 1 1 0 16.26h-5.25v8.56a.71.71 0 0 1 -.69.69h-2.37a.69.69 0 0 1 -.69-.69zm8.79 12a4.64 4.64 0 0 0 4.63-4.67 4.49 4.49 0 0 0 -4.63-4.37h-5v9z"/><path d="m62.76 14.74a.69.69 0 0 1 .69-.69h8.31a8.13 8.13 0 1 1 0 16.26h-5.25v8.56a.72.72 0 0 1 -.69.69h-2.37a.69.69 0 0 1 -.69-.69zm8.79 12a4.65 4.65 0 0 0 4.63-4.67 4.49 4.49 0 0 0 -4.63-4.37h-5v9z"/><path d="m91.73 14.74a.69.69 0 0 1 .69-.69h2.41a.71.71 0 0 1 .69.69v21.44h9.88a.69.69 0 0 1 .69.7v2a.69.69 0 0 1 -.69.69h-13a.69.69 0 0 1 -.69-.69z"/><path d="m114.26 38.63 11.19-24.54a.86.86 0 0 1 .62-.4h.37a.86.86 0 0 1 .62.4l11.12 24.54a.64.64 0 0 1 -.62.94h-2.3a.83.83 0 0 1 -.84-.54l-2.26-5h-11.91c-.73 1.68-1.5 3.32-2.23 5a.92.92 0 0 1 -.84.54h-2.3a.64.64 0 0 1 -.62-.94m16.52-7.73-4.48-10h-.18l-4.45 10z"/><path d="m146.87 14.74a.71.71 0 0 1 .69-.69h2.44a.69.69 0 0 1 .69.69v15.06c0 3.64 2.33 6.49 6.05 6.49s6.12-2.81 6.12-6.41v-15.14a.69.69 0 0 1 .7-.69h2.44a.72.72 0 0 1 .69.69v15.32a9.92 9.92 0 0 1 -19.84 0z"/><path d="m179.12 35.89c.33-.47.62-1 .95-1.5a.82.82 0 0 1 1.24-.29c.22.18 3 2.52 5.84 2.52 2.52 0 4.12-1.53 4.12-3.39 0-2.19-1.9-3.57-5.51-5.07s-6.63-3.5-6.63-7.73c0-2.84 2.18-6.74 8-6.74a12.32 12.32 0 0 1 6.75 2.16.86.86 0 0 1 .22 1.23l-.91 1.39a.86.86 0 0 1 -1.28.36c-.26-.14-2.81-1.82-4.92-1.82-3.06 0-4.12 1.94-4.12 3.29 0 2.07 1.6 3.36 4.63 4.59 4.23 1.71 7.84 3.72 7.84 8.17 0 3.79-3.39 6.89-8.13 6.89a11.82 11.82 0 0 1 -7.84-2.88c-.33-.3-.59-.55-.22-1.17"/><path d="m207.65 14.74a.69.69 0 0 1 .69-.69h14.59a.69.69 0 0 1 .69.69v2a.69.69 0 0 1 -.69.69h-11.52v7.44h9.74a.72.72 0 0 1 .69.69v2a.69.69 0 0 1 -.69.7h-9.74v7.83h11.52a.69.69 0 0 1 .69.7v2a.69.69 0 0 1 -.69.69h-14.59a.69.69 0 0 1 -.69-.69z"/></g><path d="m242.53 3.3a5.41 5.41 0 1 1 -5.41 5.41 5.41 5.41 0 0 1 5.41-5.41m0-3.3a8.7 8.7 0 1 0 8.7 8.7 8.7 8.7 0 0 0 -8.7-8.7z" fill="#0e7dc1"/></svg>