<?xml version="1.0" encoding="UTF-8" standalone="no"?>
<!DOCTYPE svg PUBLIC "-//W3C//DTD SVG 1.1//EN" "http://www.w3.org/Graphics/SVG/1.1/DTD/svg11.dtd">
<svg width="100%" height="100%" viewBox="0 0 11284 2084" version="1.1" xmlns="http://www.w3.org/2000/svg" xmlns:xlink="http://www.w3.org/1999/xlink" xml:space="preserve" xmlns:serif="http://www.serif.com/" style="fill-rule:evenodd;clip-rule:evenodd;stroke-linejoin:round;stroke-miterlimit:2;">
    <g transform="matrix(4.16667,0,0,4.16667,0,0)">
        <path d="M378.299,338.53L290.581,424.664C266.889,447.95 228.809,447.634 205.505,423.958L201.336,419.731L160.647,459.657L166.989,466.056C211.209,510.784 283.254,511.386 328.217,467.407L417.932,379.336L378.299,338.53ZM161.059,378.456L75.336,291.148C52.209,267.389 52.655,229.399 76.335,206.19L78.977,203.547L38.758,163.035L33.944,167.732C-10.782,211.952 -11.386,283.997 32.593,328.96L120.312,418.263L161.059,378.456ZM337.2,120.878L424.271,209.419C447.387,233.1 447.046,270.999 423.509,294.26L419.751,297.959L459.735,338.589L465.606,332.718C510.302,288.484 510.905,216.466 466.957,171.49L377.536,80.895L337.2,120.878ZM119.96,163.27L208.676,76.022C232.428,52.933 270.373,53.379 293.576,77.02L296.395,79.839L337.023,39.854L332.15,34.864C287.989,-9.968 215.898,-10.676 170.864,33.278L80.034,122.64L119.96,163.27ZM648.911,270.775C643.039,308.998 626.952,426.6 626.952,426.6L691.536,426.6L707.096,315.808C712.967,274.708 715.14,196.619 821.177,204.252L830.219,140.372C690.891,127.807 655.78,224.098 648.911,270.775ZM1769.64,345.4C1786.27,324.665 1794.98,298.695 1794.24,272.125C1794.24,223.099 1770.16,194.976 1728.13,194.976C1705.17,194.976 1685.73,204.957 1668.65,225.565C1651.56,246.174 1643.46,270.951 1643.46,301.893C1643.46,346.281 1667.36,374.992 1704.29,374.992C1729.47,375.991 1753.66,365.123 1769.64,345.634M1725.84,136.438C1756.85,135.92 1786.66,148.419 1808.04,170.903L1811.85,143.425L1872.97,143.425L1832.87,426.19L1771.69,426.19L1774.69,403.644C1750.95,422.248 1721.7,432.431 1691.55,432.589C1660.6,433.278 1631.06,419.677 1611.46,395.717C1590.5,370.647 1580.29,339.881 1580.29,301.775C1579.18,259.029 1594.01,217.4 1621.91,184.995C1647.34,153.824 1685.61,135.965 1725.84,136.497M2572.13,374.933C2532.5,374.933 2504.85,343.462 2504.85,298.605C2503.93,271.495 2513.48,245.071 2531.5,224.802C2547.51,205.708 2571.17,194.715 2596.09,194.799C2625.45,194.799 2642.36,209.771 2659.68,233.903L2707.23,189.398C2682.4,153.112 2647.93,136.555 2597.26,136.555C2554.94,136.082 2514.33,153.249 2485.18,183.937C2454.23,214.573 2437.24,256.592 2438.21,300.132C2438.21,339.763 2449.95,371.292 2473.96,396.54C2497.62,420.621 2530.23,433.767 2563.97,432.825C2617.4,432.825 2660.56,413.449 2692.26,375.167L2652.69,332.248C2625.62,362.837 2602.9,374.757 2571.9,374.757M2381.02,426.542L2420.83,143.66L2356.25,143.66L2316.44,426.19L2381.02,426.542ZM2398.46,21.066C2387.63,20.954 2377.21,25.183 2369.51,32.809C2361.94,40.15 2357.7,50.268 2357.77,60.815C2357.8,83.514 2376.22,101.892 2398.92,101.863C2409.63,101.85 2419.92,97.655 2427.58,90.172C2435.25,82.344 2439.48,71.775 2439.32,60.815C2439.34,50.279 2435.11,40.181 2427.58,32.809C2419.9,25.172 2409.47,20.941 2398.63,21.066M2253.91,64.162L2190.03,64.162L2154.09,318.391C2148.75,358.317 2153.68,386.324 2169.12,403.996C2182.8,419.614 2204.35,427.482 2235.65,427.482C2247.74,427.482 2259.54,427.07 2270.88,426.366L2278.74,370.118L2258.37,370.118C2239.17,370.118 2229.01,367.359 2223.14,360.548C2217.27,353.737 2215.16,340.938 2218.15,317.276L2234.53,201.316L2302.52,201.316L2310.39,144.012L2241.99,144.012L2253.91,64.162ZM2077.24,225.037L2122.27,182.763C2097.2,151.879 2061.85,136.203 2017.23,136.203C1985.35,136.203 1959.52,144.306 1938.2,160.98C1917.71,176.02 1905.91,200.158 1906.62,225.565C1906.62,267.017 1929.63,294.496 1975.08,307.177L2017.53,318.92C2039.13,325.497 2049.64,334.772 2049.64,347.162C2049.64,367.476 2033.08,377.81 2000.38,377.81C1969.74,378.203 1940.84,363.631 1922.94,338.765L1878.49,378.691C1905.62,414.624 1943.84,432.825 1992.22,432.825C2066.61,432.825 2112.76,398.418 2112.76,343.11C2112.76,302.011 2088.22,272.654 2043.71,260.324L1994.69,247.29C1977.6,242.534 1968.91,233.609 1968.91,220.75C1968.91,204.252 1986.88,191.805 2010.6,191.805C2036.49,191.805 2058.8,203.195 2077,225.683M1526.56,63.516L1462.56,63.516L1426.75,317.746C1421.41,357.671 1426.28,385.677 1441.78,403.35C1455.4,418.968 1477.01,426.835 1508.3,426.835C1520.34,426.835 1532.2,426.425 1543.53,425.72L1551.28,369.414L1530.91,369.414C1511.71,369.414 1501.55,366.655 1495.38,359.843C1489.22,353.033 1487.4,340.233 1490.39,316.572L1506.77,200.612L1574.77,200.612L1582.63,143.308L1514.41,143.308L1526.56,63.516ZM1299.05,136.203C1271.05,135.554 1244.01,146.372 1224.19,166.147L1222.07,168.202L1225.83,143.19L1162.54,143.19L1122.67,426.19L1187.26,426.19L1209.51,269.484C1216.08,222.512 1243.86,194.212 1283.78,194.212C1313.67,194.212 1332.98,214.704 1332.98,246.35C1332.98,248.463 1332.69,251.693 1332.34,255.744C1332.34,257.505 1331.99,259.443 1331.87,261.617L1308.73,426.013L1373.03,426.013C1382.03,360.724 1388.29,315.71 1391.81,290.972C1393.81,276.646 1394.93,268.779 1394.98,268.25C1396.45,258.65 1397.21,248.957 1397.27,239.246C1397.27,176.657 1358.88,136.204 1299.46,136.204M955.161,375.343C991.681,375.343 1018.57,347.63 1025.32,303.008L1047.87,143.425L1112.16,143.425L1072.29,426.19L1009.18,426.19L1012.29,401.178L1010.29,403.233C991.137,422.533 964.91,433.142 937.724,432.589C880.771,432.589 843.781,392.312 843.781,330.076C843.955,320.584 844.721,311.113 846.07,301.717L868.616,143.19L932.321,143.19L908.836,312.344C908.259,317.037 908.062,321.769 908.249,326.494C908.249,357.377 925.335,375.109 955.22,375.109" style="fill:rgb(0,139,207);fill-rule:nonzero;"/>
    </g>
</svg>
