<svg
        role="img"
        aria-hidden="true"
        aria-describedby="oh_devfest"
        viewBox="0 0 88 87"
        className="logo"
        fill="currentColor"
        {...props}
      >
        <title id="oh_devfest">Ohio Devfest Logo</title>
        <defs>
        <style> 
            @import url('https://fonts.googleapis.com/css2?family=Inter:wght@500');
        </style>
    </defs>
    <style><![CDATA[svg text{stroke:none}]]>]</style>
<g id="GDG-Ohio-Logo">
<path id="outline" d="M43.7859 0.284815C14.0115 0.129375 0.142822 24.201 0.142822 43.1931V69.7735H6.94866C10.2802 75.3434 22.3118 87.5426 44.5474 87.6203C66.783 87.698 77.6247 74.3823 80.7183 69.7735H86.6674V43.7627C86.6674 24.2072 73.5602 0.440256 43.7859 0.284815Z" fill="white"/>
<g id="borderBottom">
<path id="Vector" d="M15.2182 72.6932C14.1431 71.747 13.1161 70.7479 12.1414 69.6997H9.2323C17.4638 79.3703 29.7369 85.5111 43.4527 85.5111C57.1683 85.5111 69.4416 79.3703 77.6731 69.6997H74.764C73.5456 71.0099 72.2455 72.2438 70.872 73.3927C70.5972 73.6223 70.3195 73.8491 70.0391 74.072C69.4779 74.518 68.9054 74.9499 68.3218 75.3676C67.7382 75.7857 67.1435 76.189 66.5384 76.5778C59.8825 80.853 51.9582 83.3334 43.4527 83.3334C35.3339 83.3334 27.7443 81.0733 21.2823 77.1495C20.9746 76.9624 20.6694 76.772 20.367 76.5778C18.5517 75.4117 17.646 74.8117 16.0334 73.3927L15.2182 72.6932Z" fill="currentColor"/>
</g>
<g id="borderTop">
<path id="Vector_2" d="M82.9523 41.9775C82.9523 20.2213 65.2676 2.58435 43.4526 2.58435C21.6376 2.58435 3.95288 20.2213 3.95288 41.9775C3.95288 42.6009 3.96915 43.2205 3.9979 43.8366H82.9072C82.936 43.2205 82.9523 42.6009 82.9523 41.9775ZM80.3511 41.1595H6.55465C6.99072 21.2084 23.3428 5.16842 43.4526 5.16842C63.5625 5.16842 79.9146 21.2084 80.3511 41.1595Z" fill="currentColor"/>
</g>
<g id="top">
<path id="Vector_3" fill-rule="evenodd" clip-rule="evenodd" d="M75.5577 38.4822H11.3475C13.0946 22.3389 26.8009 9.76941 43.4527 9.76941C60.1047 9.76941 73.8111 22.3389 75.5577 38.4822ZM25.23 36.389C31.6458 36.389 37.8419 28.0936 37.8419 22.3033C37.8419 19.36 36.2319 17.365 33.9878 17.365C32.9631 17.365 32.2554 16.9027 31.0604 16.9027C26.1325 16.9027 19.546 24.9068 19.546 30.7938C19.546 33.5672 21.278 36.389 25.23 36.389ZM32.9874 18.63C34.5732 18.63 35.5974 19.5788 35.5974 21.6953C35.5974 25.5148 31.3773 33.7376 26.1813 33.7376C23.8639 33.7376 23.0344 32.083 23.0344 30.3315C23.0344 28.3124 24.059 26.1717 24.2053 26.1717C24.2785 26.1717 24.498 28.4344 27.2547 28.4344C30.8652 28.4344 32.3045 24.9552 32.3045 22.6199C32.3045 22.1576 32.2069 21.6953 32.1093 21.6953C32.0118 21.6953 31.8899 21.963 31.7433 22.3275C31.5725 22.6683 29.9382 26.1475 27.4742 26.1475C26.7181 26.1475 26.1813 25.5148 26.1813 24.7117C26.1813 22.5468 30.0114 18.63 32.9874 18.63ZM47.8113 32.7261C47.7847 32.9279 47.7704 33.1196 47.7704 33.2995C47.7704 34.6864 48.5514 36.0971 49.7707 36.0971C51.3456 36.0971 53.3055 33.9982 54.5658 32.3008C54.5567 32.4333 54.552 32.5638 54.552 32.6915C54.552 35.0268 55.9184 36.1702 57.9673 36.1702C59.5531 36.1702 61.0413 35.1972 62.3097 33.8107H62.5053C64.0421 33.8107 66.0667 32.7888 67.3108 30.3315C67.3351 30.2831 67.3593 30.21 67.3593 30.1127C67.3593 29.7966 67.1885 29.48 66.9933 29.48C66.6521 29.48 65.6031 31.8888 64.1882 31.8888C64.0421 31.8888 63.9198 31.84 63.7736 31.7915C64.9202 29.845 65.6274 27.6312 65.6274 25.8798C65.6274 24.9068 65.1881 23.9332 64.0421 23.9332C63.3586 23.9332 62.7732 23.6171 62.066 23.6171C59.1195 23.6171 56.39 26.6867 55.1916 29.7207C54.3425 30.8484 52.2484 33.9075 51.0148 33.9075C50.8197 33.9075 50.6736 33.7618 50.6736 33.3968C50.6736 31.7184 54.3325 25.3444 54.8447 24.3713C54.8937 24.2982 54.9184 24.2252 54.9184 24.1767C54.9184 23.7628 54.0641 23.6413 53.4545 23.6413C53.1618 23.6413 52.9176 23.666 52.82 23.6902C51.9871 24.0324 50.0049 26.8946 48.7865 29.64C48.0107 30.6552 45.9952 33.6645 44.941 33.6645C44.4531 33.6645 44.3798 33.4457 44.3798 33.1538C44.3798 31.8642 47.3068 26.8039 47.6485 26.1475C47.9903 25.4901 48.283 24.9794 48.283 24.639C48.283 24.2252 46.9166 23.7144 46.0142 23.7144C44.6725 23.7144 40.5495 28.3855 40.1835 28.8478L40.1593 28.7989C41.6232 25.8067 45.3798 19.3353 45.3798 18.7273C45.3798 18.0462 44.0624 17.7296 43.6964 17.7296C43.1843 17.7296 41.2082 21.4765 39.1346 25.4175C37.0124 29.5289 34.8169 33.8349 34.8169 34.4187C34.8169 35.3191 35.8901 36.0487 36.3784 36.0487C36.8663 36.0487 37.2808 34.5649 38.6467 32.5211C40.2325 30.21 42.7935 27.5581 44.2085 26.269L44.3061 26.3174C43.6721 27.1931 41.1106 31.1346 41.1106 33.908C41.1106 35.173 42.2086 36.0729 43.3551 36.0729C44.7334 36.0729 46.5339 34.3338 47.8113 32.7261ZM63.0902 25.296C63.7979 25.296 63.993 25.9282 63.993 26.5367C63.993 27.5097 63.4072 29.2123 62.5295 30.7454C62.1388 30.4046 61.6752 30.1127 61.0899 30.1127C60.0409 30.1127 59.4555 30.8911 59.4555 31.7427C59.4555 32.3512 59.7967 32.935 60.4316 33.2995C59.9924 33.6161 59.5531 33.8107 59.1143 33.8107C58.358 33.8107 58.0648 33.2269 58.0648 32.3996C58.0648 29.5047 61.1631 25.296 63.0902 25.296ZM55.748 22.206C56.9673 22.206 58.1138 21.233 58.1138 19.968C58.1138 18.8004 57.1139 17.9731 55.9669 17.9731C54.7476 17.9731 53.6006 18.9461 53.6006 20.211C53.6006 21.3792 54.601 22.206 55.748 22.206Z" fill="currentColor"/>
</g>
<g id="D-char">
<path id="Vector_4" d="M16.6202 52.0739C16.6202 54.0769 16.2686 55.8171 15.5656 57.2942C14.8626 58.7714 13.8459 59.8963 12.5155 60.669C11.1849 61.4415 9.61566 61.8275 7.8081 61.8275H2.95557L6.28016 46.1398H10.541C12.4778 46.1398 13.975 46.6514 15.0332 47.6745C16.0911 48.6973 16.6202 50.1638 16.6202 52.0739ZM7.95882 59.0809C9.02035 59.0809 9.94564 58.809 10.7347 58.2655C11.5238 57.7218 12.1405 56.9224 12.5853 55.8671C13.0301 54.812 13.2524 53.6046 13.2524 52.2453C13.2524 51.144 12.9924 50.305 12.4722 49.7293C11.9523 49.1532 11.2043 48.8652 10.229 48.8652H8.99159L6.81836 59.0809H7.95882Z" fill="currentColor"/>
</g>
<g id="e-char">
<path id="Vector_5" d="M22.6275 62.0425C21.1211 62.0425 19.9517 61.6384 19.1198 60.8299C18.2876 60.0214 17.8717 58.8807 17.8717 57.4069C17.8717 55.926 18.1676 54.5758 18.7593 53.3562C19.3513 52.1365 20.1528 51.2064 21.1642 50.5664C22.1755 49.926 23.3196 49.6058 24.5964 49.6058C25.8662 49.6058 26.8559 49.8973 27.5661 50.4804C28.2762 51.0634 28.6314 51.8628 28.6314 52.8787C28.6314 54.2163 28.0323 55.2482 26.8345 55.9743C25.6364 56.7005 23.9256 57.0636 21.7022 57.0636H21.1535L21.1318 57.2888V57.5034C21.1318 58.1545 21.3165 58.6679 21.6859 59.0433C22.0554 59.4188 22.5844 59.6067 23.273 59.6067C23.897 59.6067 24.4636 59.5387 24.973 59.4028C25.4823 59.2669 26.099 59.0272 26.8236 58.6839V61.1197C25.5898 61.7349 24.1911 62.0425 22.6275 62.0425ZM24.392 51.9346C23.7608 51.9346 23.1655 52.2206 22.6059 52.7927C22.0464 53.3653 21.6806 54.0626 21.5084 54.8853H21.9927C23.1044 54.8853 23.9706 54.7119 24.5911 54.3648C25.2114 54.0179 25.5217 53.5476 25.5217 52.9537C25.5217 52.2742 25.1452 51.9346 24.392 51.9346Z" fill="currentColor"/>
</g>
<g id="v-char">
<path id="Vector_6" d="M34.0755 58.5981C34.4699 57.5036 34.8001 56.706 35.0654 56.2051L38.2609 49.8313H41.7362L35.2376 61.8279H31.7623L30.2773 49.8313H33.4514L33.9357 56.1194C33.9859 57.0707 34.011 57.8968 34.011 58.5981H34.0755Z" fill="currentColor"/>
</g>
<g id="F-char">
<path id="Vector_7" d="M44.3187 61.8277H41.037L44.3618 46.1398H53.1199L52.5387 48.8652H47.073L46.2231 52.9106H51.3124L50.7099 55.6256H45.6204L44.3187 61.8277Z" fill="currentColor"/>
</g>
<g id="e-char2">
<path id="Vector_8" d="M57.8864 62.0425C56.3799 62.0425 55.2108 61.6384 54.3788 60.8299C53.5467 60.0214 53.1306 58.8807 53.1306 57.4069C53.1306 55.926 53.4265 54.5758 54.0184 53.3562C54.6102 52.1365 55.4117 51.2064 56.4231 50.5664C57.4344 49.926 58.5783 49.6058 59.8554 49.6058C61.1251 49.6058 62.1147 49.8973 62.825 50.4804C63.5349 51.0634 63.8901 51.8628 63.8901 52.8787C63.8901 54.2163 63.2912 55.2482 62.0934 55.9743C60.8953 56.7005 59.1847 57.0636 56.9611 57.0636H56.4122L56.3908 57.2888V57.5034C56.3908 58.1545 56.5754 58.6679 56.9448 59.0433C57.3141 59.4188 57.8433 59.6067 58.5321 59.6067C59.1557 59.6067 59.7227 59.5387 60.2319 59.4028C60.7412 59.2669 61.3579 59.0272 62.0827 58.6839V61.1197C60.8487 61.7349 59.45 62.0425 57.8864 62.0425ZM59.6507 51.9346C59.0197 51.9346 58.4244 52.2206 57.865 52.7927C57.3051 53.3653 56.9397 54.0626 56.7671 54.8853H57.2516C58.3631 54.8853 59.2293 54.7119 59.8498 54.3648C60.4701 54.0179 60.7806 53.5476 60.7806 52.9537C60.7806 52.2742 60.4039 51.9346 59.6507 51.9346Z" fill="currentColor"/>
</g>
<g id="s-char">
<path id="Vector_9" d="M73.3586 57.8685C73.3586 59.2136 72.9122 60.2454 72.0191 60.9641C71.1261 61.6831 69.8833 62.0425 68.2909 62.0425C67.5233 62.0425 66.8546 61.9891 66.2843 61.8817C65.7141 61.7745 65.1815 61.5957 64.6865 61.3452V58.6842C65.8125 59.3279 66.9567 59.6497 68.1188 59.6497C68.6927 59.6497 69.1625 59.5336 69.5284 59.3008C69.894 59.0684 70.0771 58.7522 70.0771 58.3513C70.0771 58.044 69.9442 57.7683 69.6789 57.5252C69.4133 57.2818 68.9435 56.9744 68.2693 56.6024C67.4013 56.1159 66.7953 55.6312 66.451 55.1484C66.1068 54.6654 65.9345 54.0951 65.9345 53.4369C65.9345 52.2206 66.3309 51.2784 67.1235 50.6092C67.9161 49.9405 69.0475 49.6061 70.5181 49.6061C71.96 49.6061 73.2619 49.9457 74.4239 50.6254L73.3586 52.9326C72.3544 52.3316 71.4291 52.0309 70.5827 52.0309C70.1736 52.0309 69.8439 52.1221 69.5928 52.3045C69.3417 52.4872 69.2162 52.7322 69.2162 53.0398C69.2162 53.3188 69.3306 53.5637 69.5605 53.7749C69.7899 53.9857 70.2204 54.2523 70.8516 54.5743C71.7339 55.0248 72.3723 55.5151 72.7669 56.0441C73.1613 56.5737 73.3586 57.1815 73.3586 57.8685Z" fill="currentColor"/>
</g>
<g id="t-char">
<path id="Vector_10" d="M80.3953 59.4349C80.8617 59.4349 81.4426 59.3097 82.1382 59.0593V61.4737C81.342 61.8528 80.388 62.0425 79.2763 62.0425C78.2005 62.0425 77.4094 61.8172 76.904 61.3665C76.3981 60.9158 76.1452 60.218 76.1452 59.2741C76.1452 58.9165 76.1883 58.516 76.2743 58.072L77.5118 52.2882H75.8763L76.1883 50.711L78.2973 49.8096L79.7175 47.2771H81.8047L81.2776 49.8311H84.3224L83.7846 52.2882H80.7503L79.5131 58.072C79.47 58.2866 79.4486 58.4763 79.4486 58.6408C79.4486 59.1702 79.7639 59.4349 80.3953 59.4349Z" fill="currentColor"/>
</g>
<g id="dish">
<path id="Vector_11" d="M85.0029 67.0227L83.1389 64.3457H3.76666L1.90259 67.0227H14.0904C21.3205 75.032 31.7958 80.0695 43.4528 80.0695C55.1096 80.0695 65.5848 75.032 72.8149 67.0227H85.0029Z" fill="currentColor"/>
</g>
</g>
<g id="gdgohio-text">
<g id="Group">
<path id="Vector_12" d="M28.9803 69.2895L30.5915 68.3618C30.9706 68.1434 31.1005 67.6599 30.8816 67.2817C30.6627 66.9036 30.178 66.7739 29.7987 66.9924L27.0146 68.5953L28.9803 69.2895Z" fill="white"/>
</g>
<g id="Group_2">
<path id="Vector_13" d="M30.1942 71.674C30.4683 71.674 30.7346 71.5322 30.8816 71.2785C31.1005 70.9004 30.9706 70.4168 30.5914 70.1985L27.8072 68.5955C27.4281 68.377 26.9432 68.5067 26.7243 68.8849C26.5053 69.263 26.6352 69.7466 27.0144 69.9649L29.7986 71.568C29.9233 71.6398 30.0598 71.674 30.1942 71.674Z" fill="white"/>
</g>
<g id="Group_3">
<path id="Vector_14" d="M32.9637 71.674C33.0982 71.674 33.2344 71.6398 33.3593 71.568L36.1436 69.9649L34.2027 69.2565L32.5665 70.1985C32.1874 70.4168 32.0575 70.9003 32.2764 71.2785C32.4231 71.5322 32.6897 71.674 32.9637 71.674Z" fill="white"/>
</g>
<g id="Group_4">
<path id="Vector_15" d="M35.7464 70.071C36.0204 70.071 36.2867 69.9292 36.4337 69.6755C36.6526 69.2974 36.5227 68.8138 36.1436 68.5955L33.3593 66.9923C32.9802 66.774 32.4953 66.9033 32.2764 67.2817C32.0575 67.66 32.1874 68.1436 32.5665 68.3617L35.3507 69.965C35.4755 70.0368 35.6119 70.071 35.7464 70.071Z" fill="white"/>
</g>
<g id="Group_5">
<path id="Vector_16" d="M41.8616 69.4254C41.8616 69.9131 41.7164 70.3017 41.4265 70.5908C41.1005 70.9356 40.6719 71.1078 40.1407 71.1078C39.6322 71.1078 39.2019 70.932 38.8499 70.5811C38.4979 70.2299 38.322 69.7978 38.322 69.284C38.322 68.7704 38.4979 68.338 38.8499 67.9872C39.2019 67.6359 39.6322 67.4603 40.1407 67.4603C40.3981 67.4603 40.641 67.506 40.8691 67.5972C41.0973 67.6882 41.2847 67.8163 41.4313 67.982L41.1086 68.304C41.0011 68.1741 40.8617 68.0724 40.6906 67.9993C40.5194 67.9261 40.3362 67.8895 40.1407 67.8895C39.7593 67.8895 39.4367 68.0212 39.1726 68.2844C38.9118 68.551 38.7815 68.8843 38.7815 69.284C38.7815 69.6841 38.9118 70.0171 39.1726 70.2837C39.4367 70.5467 39.7593 70.6785 40.1407 70.6785C40.4893 70.6785 40.7794 70.5811 41.0108 70.3859C41.2423 70.1909 41.3759 69.923 41.4118 69.5814H40.1407V69.1621H41.8372C41.8534 69.2531 41.8616 69.3409 41.8616 69.4254Z" fill="white"/>
</g>
<g id="Group_6">
<path id="Vector_17" d="M42.3113 71.0295V67.5387H43.3819C43.9166 67.5387 44.3459 67.6993 44.6703 68.0213C44.9946 68.343 45.1568 68.7639 45.1568 69.284C45.1568 69.8073 44.9946 70.2292 44.6703 70.5494C44.3459 70.8696 43.9166 71.0295 43.3819 71.0295H42.3113ZM42.761 67.9677V70.6004H43.3819C43.7894 70.6004 44.1105 70.4843 44.3451 70.2519C44.5797 70.0197 44.6971 69.6968 44.6971 69.284C44.6971 68.8746 44.5797 68.5529 44.3451 68.3185C44.1105 68.0845 43.7894 67.9677 43.3819 67.9677H42.761Z" fill="white"/>
</g>
<g id="Group_7">
<path id="Vector_18" d="M48.9603 69.4254C48.9603 69.9131 48.8156 70.3017 48.5252 70.5908C48.1992 70.9356 47.7707 71.1078 47.2394 71.1078C46.731 71.1078 46.3007 70.932 45.9487 70.5811C45.5967 70.2299 45.4208 69.7978 45.4208 69.284C45.4208 68.7704 45.5967 68.338 45.9487 67.9872C46.3007 67.6359 46.731 67.4603 47.2394 67.4603C47.4968 67.4603 47.7398 67.506 47.9678 67.5972C48.1961 67.6882 48.3835 67.8163 48.53 67.982L48.2074 68.304C48.0999 68.1741 47.9605 68.0724 47.7893 67.9993C47.6182 67.9261 47.435 67.8895 47.2394 67.8895C46.8581 67.8895 46.5355 68.0212 46.2713 68.2844C46.0105 68.551 45.8803 68.8843 45.8803 69.284C45.8803 69.6841 46.0105 70.0171 46.2713 70.2837C46.5355 70.5467 46.8581 70.6785 47.2394 70.6785C47.5881 70.6785 47.8782 70.5811 48.1096 70.3859C48.341 70.1909 48.4747 69.923 48.5106 69.5814H47.2394V69.1621H48.9359C48.9522 69.2531 48.9603 69.3409 48.9603 69.4254Z" fill="white"/>
</g>
<g id="Group_8">
<path id="Vector_19" d="M53.7172 69.284C53.7172 69.8007 53.5445 70.2331 53.1991 70.5811C52.8502 70.932 52.4233 71.1078 51.918 71.1078C51.4095 71.1078 50.9826 70.932 50.6371 70.5811C50.2917 70.2331 50.1188 69.8007 50.1188 69.284C50.1188 68.7674 50.2917 68.3349 50.6371 67.987C50.9826 67.6359 51.4095 67.4603 51.918 67.4603C52.4265 67.4603 52.8534 67.6375 53.1991 67.9919C53.5445 68.34 53.7172 68.7704 53.7172 69.284ZM50.5784 69.284C50.5784 69.687 50.7054 70.0205 50.9598 70.2837C51.2172 70.5467 51.5367 70.6785 51.918 70.6785C52.2993 70.6785 52.6172 70.5467 52.8715 70.2837C53.1289 70.0234 53.2576 69.6906 53.2576 69.284C53.2576 68.8778 53.1289 68.5447 52.8715 68.2844C52.6172 68.0212 52.2993 67.8895 51.918 67.8895C51.5367 67.8895 51.2172 68.0212 50.9598 68.2844C50.7054 68.5477 50.5784 68.8809 50.5784 69.284Z" fill="white"/>
</g>
<g id="Group_9">
<path id="Vector_20" d="M54.0742 67.5385H54.524V68.6404L54.5045 68.9719H54.524C54.5924 68.855 54.6975 68.7575 54.8391 68.6796C54.9811 68.6015 55.1284 68.5625 55.2819 68.5625C55.575 68.5625 55.8009 68.6464 55.9589 68.8135C56.117 68.981 56.1961 69.2191 56.1961 69.528V71.0295H55.7463V69.6156C55.7463 69.1865 55.5556 68.9719 55.1742 68.9719C54.9916 68.9719 54.8377 69.0474 54.7122 69.1989C54.5866 69.3498 54.524 69.5264 54.524 69.7278V71.0295H54.0742V67.5385Z" fill="white"/>
</g>
<g id="Group_10">
<path id="Vector_21" d="M57.208 67.8163C57.208 67.9041 57.177 67.9789 57.1151 68.0408C57.0531 68.1023 56.9781 68.1333 56.8903 68.1333C56.8022 68.1333 56.7271 68.1023 56.6652 68.0408C56.6033 67.9789 56.5724 67.9041 56.5724 67.8163C56.5724 67.7287 56.6033 67.6539 56.6652 67.592C56.7271 67.5305 56.8022 67.4993 56.8903 67.4993C56.9781 67.4993 57.0531 67.5305 57.1151 67.592C57.177 67.6539 57.208 67.7287 57.208 67.8163ZM57.1151 71.0295H56.6652V68.6404H57.1151V71.0295Z" fill="white"/>
</g>
<g id="Group_11">
<path id="Vector_22" d="M57.4426 69.8349C57.4426 69.4677 57.5582 69.1637 57.7897 68.9232C58.0245 68.6827 58.3193 68.5623 58.6747 68.5623C59.0299 68.5623 59.323 68.6827 59.5544 68.9232C59.7894 69.1637 59.9068 69.4677 59.9068 69.8349C59.9068 70.2055 59.7894 70.5095 59.5544 70.7466C59.323 70.9873 59.0299 71.1076 58.6747 71.1076C58.3193 71.1076 58.0245 70.9873 57.7897 70.7466C57.5582 70.5061 57.4426 70.2022 57.4426 69.8349ZM57.8924 69.8349C57.8924 70.0918 57.9673 70.2999 58.1171 70.4591C58.267 70.6183 58.453 70.698 58.6747 70.698C58.8962 70.698 59.082 70.6183 59.2317 70.4591C59.3817 70.2999 59.4566 70.0918 59.4566 69.8349C59.4566 69.5814 59.3817 69.3749 59.2317 69.2157C59.0788 69.0531 58.8928 68.9718 58.6747 68.9718C58.456 68.9718 58.2706 69.0531 58.1171 69.2157C57.9673 69.3749 57.8924 69.5814 57.8924 69.8349Z" fill="white"/>
</g>
</g>
<g id="gdg-year" height="5.03" width="14.56">
<text id="gdg_year" x="36.22" y="71.1" font-family="Inter" fill="white" >2024</text>
</g>
</g>
</svg>
